<?xml version="1.0" encoding="utf-8"?>
<!-- Generator: Adobe Illustrator 24.1.1, SVG Export Plug-In . SVG Version: 6.00 Build 0)  -->
<svg version="1.1" id="Layer_1" xmlns="http://www.w3.org/2000/svg" xmlns:xlink="http://www.w3.org/1999/xlink" x="0px" y="0px"
	 viewBox="0 0 15 15" style="enable-background:new 0 0 15 15;" xml:space="preserve">
<style type="text/css">
	.st0{fill:#9B9B9B;}
</style>
<path class="st0" d="M15,4.4c0,0.1,0,0.2-0.1,0.3l-7,7c-0.1,0.1-0.2,0.1-0.3,0.1c-0.1,0-0.2,0-0.3-0.1l-7-7C0.1,4.6,0,4.5,0,4.4
	s0-0.2,0.1-0.3l0.7-0.7C1,3.2,1.1,3.1,1.3,3.1c0.1,0,0.2,0,0.3,0.1l5.9,5.9l5.9-5.9c0.1-0.1,0.2-0.1,0.3-0.1c0.1,0,0.2,0,0.3,0.1
	L14.8,4C14.9,4.1,15,4.3,15,4.4z"/>
</svg>
